<?xml version="1.0" encoding="utf-8"?>
<!-- Generator: Adobe Illustrator 16.0.0, SVG Export Plug-In . SVG Version: 6.00 Build 0)  -->
<!DOCTYPE svg PUBLIC "-//W3C//DTD SVG 1.1//EN" "http://www.w3.org/Graphics/SVG/1.1/DTD/svg11.dtd">
<svg version="1.1" id="Warstwa_1" xmlns="http://www.w3.org/2000/svg" xmlns:xlink="http://www.w3.org/1999/xlink" x="0px" y="0px"
	 width="67.096px" height="97px" viewBox="0 0 67.096 97" enable-background="new 0 0 67.096 97" xml:space="preserve">
<path fill="#0A81E2" d="M61.428,14.627c0,0-9.76-15-27.88-14.62c-18.12-0.38-27.88,14.62-27.88,14.62c-15.62,24.26,6,47.13,6,47.13
	c16.26,18.369,17.26,26.369,18.26,30c1,3.63,3.62,3.369,3.62,3.369s2.62,0.261,3.62-3.369c1-3.631,2-11.631,18.26-30
	C55.428,61.758,77.048,38.887,61.428,14.627z M33.548,65.817c-17.88,0-32.38-14.5-32.38-32.37c0-17.89,14.5-32.38,32.38-32.38
	s32.38,14.49,32.38,32.38C65.928,51.317,51.428,65.817,33.548,65.817z"/>
<path fill="#FFFFFF" d="M65.928,33.327c0,17.87-14.5,32.37-32.38,32.37s-32.38-14.5-32.38-32.37c0-17.89,14.5-32.38,32.38-32.38
	S65.928,15.437,65.928,33.327z"/>
<path fill="#0A81E2" d="M47.048,22.147c0,0,0.13-5.62-10.33-5.66c-0.59,0-1.59-0.01-1.59-0.01l-1.58,0.01l-1.58-0.01
	c0,0-1,0.01-1.59,0.01c-10.46,0.04-10.33,5.66-10.33,5.66s-0.04,17.05,0,18.92c0.04,1.88,1.62,2.96,1.62,2.96s-0.04,1.83,0,3.21
	c0.05,1.37,1.46,1.37,1.46,1.37s1.09,0,2.25,0c1.17,0,1.5-1.29,1.5-1.29v-2.04h13.34v2.04c0,0,0.33,1.29,1.5,1.29
	c1.16,0,2.25,0,2.25,0s1.41,0,1.46-1.37c0.04-1.38,0-3.21,0-3.21s1.58-1.08,1.62-2.96C47.088,39.197,47.048,22.147,47.048,22.147z
	 M25.948,41.857c-1.44,0-2.61-1.16-2.61-2.6s1.17-2.61,2.61-2.61c1.43,0,2.6,1.17,2.6,2.61S27.378,41.857,25.948,41.857z
	 M41.168,41.857c-1.43,0-2.601-1.16-2.601-2.6s1.171-2.61,2.601-2.61c1.439,0,2.61,1.17,2.61,2.61S42.607,41.857,41.168,41.857z
	 M43.928,31.857h-20.76v-8.75h20.76V31.857z"/>
</svg>
