<?xml version="1.0" encoding="utf-8"?>
<!-- Generator: Adobe Illustrator 16.0.0, SVG Export Plug-In . SVG Version: 6.00 Build 0)  -->
<!DOCTYPE svg PUBLIC "-//W3C//DTD SVG 1.1//EN" "http://www.w3.org/Graphics/SVG/1.1/DTD/svg11.dtd">
<svg version="1.1" id="Warstwa_1" xmlns="http://www.w3.org/2000/svg" xmlns:xlink="http://www.w3.org/1999/xlink" x="0px" y="0px"
	 width="67.096px" height="97px" viewBox="0 0 67.096 97" enable-background="new 0 0 67.096 97" xml:space="preserve">
<path fill="#ED0000" d="M61.428,14.627c0,0-9.76-15-27.88-14.62c-18.12-0.38-27.88,14.62-27.88,14.62c-15.62,24.26,6,47.13,6,47.13
	c16.26,18.369,17.26,26.369,18.26,30c1,3.63,3.62,3.369,3.62,3.369s2.62,0.261,3.62-3.369c1-3.631,2-11.631,18.26-30
	C55.428,61.758,77.048,38.887,61.428,14.627z M33.548,65.817c-17.88,0-32.38-14.5-32.38-32.37c0-17.89,14.5-32.38,32.38-32.38
	s32.38,14.49,32.38,32.38C65.928,51.317,51.428,65.817,33.548,65.817z"/>
<path fill="#FFFFFF" d="M65.928,33.327c0,17.87-14.5,32.37-32.38,32.37s-32.38-14.5-32.38-32.37c0-17.89,14.5-32.38,32.38-32.38
	S65.928,15.437,65.928,33.327z"/>
<path fill="#ED0000" d="M50.548,30.527v5.59c-0.08,2.67-2.45,2.55-2.45,2.55h-9.21v9.2c0,0,0.13,2.38-2.54,2.45h-5.6
	c-2.67-0.07-2.54-2.45-2.54-2.45v-9.2h-9.21c0,0-2.37,0.12-2.45-2.55v-5.59c0.08-2.67,2.45-2.55,2.45-2.55h9.21v-9.2
	c0,0-0.13-2.38,2.54-2.46h5.6c2.67,0.08,2.54,2.46,2.54,2.46v9.2h9.21C48.098,27.978,50.468,27.857,50.548,30.527z"/>
</svg>
