<?xml version="1.0" encoding="utf-8"?>
<!-- Generator: Adobe Illustrator 16.0.0, SVG Export Plug-In . SVG Version: 6.00 Build 0)  -->
<!DOCTYPE svg PUBLIC "-//W3C//DTD SVG 1.1//EN" "http://www.w3.org/Graphics/SVG/1.1/DTD/svg11.dtd">
<svg version="1.1" id="Warstwa_1" xmlns="http://www.w3.org/2000/svg" xmlns:xlink="http://www.w3.org/1999/xlink" x="0px" y="0px"
	 width="139.42px" height="200px" viewBox="0 0 139.42 200" enable-background="new 0 0 139.42 200" xml:space="preserve">
<path fill="#99825D" d="M127.643,30.728c0,0-20.28-31.169-57.932-30.38c-37.653-0.79-57.933,30.38-57.933,30.38
	c-32.458,50.41,12.468,97.933,12.468,97.933C58.032,166.832,60.109,183.454,62.187,191c2.078,7.541,7.523,7.001,7.523,7.001
	s5.444,0.54,7.522-7.001c2.077-7.546,4.156-24.168,37.942-62.339C115.175,128.661,160.1,81.138,127.643,30.728z M69.71,137.098
	c-37.153,0-67.284-30.131-67.284-67.264c0-37.174,30.131-67.283,67.284-67.283c37.153,0,67.282,30.109,67.282,67.283
	C136.992,106.967,106.863,137.098,69.71,137.098z"/>
<path fill="#FFFFFF" d="M136.992,69.583c0,37.133-30.129,67.262-67.282,67.262c-37.153,0-67.284-30.129-67.284-67.262
	C2.426,32.41,32.557,2.3,69.71,2.3C106.863,2.3,136.992,32.41,136.992,69.583z"/>
<g>
	<path fill="#99825D" d="M55.732,108.359c0,0,4.949-2.66,20.995-4.01c0,0,13.085-1.052,21.935-6.151
		c8.848-5.097,18.069-15.884,20.872-25.081c2.798-9.2,5.396-19.998,6.198-21.898c0,0,1.463-4.749-3.887-1.725
		c-5.305,2.999-12.518,4.226-18.424,4.761c0.824-0.073-21.52,1.689-30.33,4.575c-8.812,2.886-15.336,6.788-19.91,13.461
		c-4.574,6.674-6.337,12.484-8.024,18.259c-1.686,5.773-2.586,12.973-2.738,15.674c-0.118,2.156-0.052,4.334,0.009,6.496
		c0.108,3.809,0.713,7.848,1.721,11.552c0.316,1.169,0.642,2.92,2.096,2.42c1.313-0.449,0.863-1.574,0.75-2.287
		c-0.034-0.217-0.137-0.433-0.2-0.643c-0.341-1.143-0.509-2.329-0.649-3.508c-0.192-1.614-0.429-3.271-0.283-4.898
		c0.115-1.283,0.208-2.569,0.377-3.844c0.462-3.495,1.432-6.974,2.798-10.214c0.919-2.179,2.023-4.259,3.357-6.213
		c1.336-1.958,2.937-3.709,4.741-5.245c1.694-1.444,3.51-2.698,5.451-3.783c1.775-0.993,3.606-1.854,5.495-2.603
		c1.607-0.64,3.24-1.204,4.886-1.728c1.499-0.473,3.004-0.937,4.5-1.427c0.413-0.137,0.822-0.283,1.249-0.397
		c0.158-0.042,0.482,0.086,0.556,0.236c0.135,0.271-0.107,0.417-0.332,0.552c-1.011,0.599-10.537,3.675-16.498,9.146
		c-5.96,5.474-8.884,10.722-9.674,14.583c-0.154,0.768-0.136,1.954,0.086,2.718c0.171,0.583,0.579,0.951,1.131,1.169
		C54.451,108.488,55.265,108.611,55.732,108.359z"/>
	<path fill="#99825D" d="M51.444,70.968c0,0,4.999-8.399,16.795-12.999c0,0,0.653-0.6-13.446-6.499c0,0,11.249,1.249,16.75,5.498
		c0,0,3.795-1.948,17.595-3.497c0,0-9.397-16.498-34.543-19.048c-25.146-2.548-18.298-1.999-30.495-6.197
		c0,0-2.149-0.65-1.849,1.448c0,0,2.049,7.1,3.349,12.048c1.299,4.95,3.699,12.249,10.098,19.446
		C42.095,68.368,48.294,70.365,51.444,70.968z"/>
</g>
</svg>
