<?xml version="1.0" encoding="utf-8"?>
<!-- Generator: Adobe Illustrator 16.0.0, SVG Export Plug-In . SVG Version: 6.00 Build 0)  -->
<!DOCTYPE svg PUBLIC "-//W3C//DTD SVG 1.1//EN" "http://www.w3.org/Graphics/SVG/1.1/DTD/svg11.dtd">
<svg version="1.1" id="Warstwa_1" xmlns="http://www.w3.org/2000/svg" xmlns:xlink="http://www.w3.org/1999/xlink" x="0px" y="0px"
	 width="67.096px" height="97px" viewBox="0 0 67.096 97" enable-background="new 0 0 67.096 97" xml:space="preserve">
<path fill="#78909C" d="M61.428,14.627c0,0-9.76-15-27.88-14.62c-18.12-0.38-27.88,14.62-27.88,14.62c-15.62,24.26,6,47.13,6,47.13
	c16.26,18.369,17.26,26.369,18.26,30c1,3.63,3.62,3.369,3.62,3.369s2.62,0.261,3.62-3.369c1-3.631,2-11.631,18.26-30
	C55.428,61.758,77.048,38.887,61.428,14.627z M33.548,65.817c-17.88,0-32.38-14.5-32.38-32.37c0-17.89,14.5-32.38,32.38-32.38
	s32.38,14.49,32.38,32.38C65.928,51.317,51.428,65.817,33.548,65.817z"/>
<path fill="#FFFFFF" d="M65.928,33.327c0,17.87-14.5,32.37-32.38,32.37s-32.38-14.5-32.38-32.37c0-17.89,14.5-32.38,32.38-32.38
	S65.928,15.437,65.928,33.327z"/>
<g>
	<polygon fill="#78909C" points="16.994,24.796 33.871,14.81 50.747,24.796 	"/>
	<path fill="#78909C" d="M47.688,27.173v16.683h-3.773V32.134c0-1.101-0.891-1.992-1.973-1.992c-1.102,0-2.01,0.891-2.01,1.992
		v11.722h-4.087V32.134c0-1.101-0.891-1.992-1.992-1.992c-1.101,0-1.992,0.891-1.992,1.992v11.722h-4.071V32.134
		c0-1.101-0.89-1.992-1.991-1.992c-1.101,0-1.992,0.891-1.992,1.992v11.722h-3.721V27.173H47.688z"/>
	<rect x="18.794" y="46.251" fill="#78909C" width="30.189" height="1.692"/>
</g>
</svg>
