<?xml version="1.0" encoding="utf-8"?>
<!-- Generator: Adobe Illustrator 16.0.0, SVG Export Plug-In . SVG Version: 6.00 Build 0)  -->
<!DOCTYPE svg PUBLIC "-//W3C//DTD SVG 1.1//EN" "http://www.w3.org/Graphics/SVG/1.1/DTD/svg11.dtd">
<svg version="1.1" id="Warstwa_1" xmlns="http://www.w3.org/2000/svg" xmlns:xlink="http://www.w3.org/1999/xlink" x="0px" y="0px"
	 width="67.096px" height="97px" viewBox="0 0 67.096 97" enable-background="new 0 0 67.096 97" xml:space="preserve">
<path fill="#78909C" d="M61.428,14.627c0,0-9.76-15-27.88-14.62c-18.12-0.38-27.88,14.62-27.88,14.62c-15.62,24.26,6,47.13,6,47.13
	c16.26,18.369,17.26,26.369,18.26,30c1,3.63,3.62,3.369,3.62,3.369s2.62,0.261,3.62-3.369c1-3.631,2-11.631,18.26-30
	C55.428,61.758,77.048,38.887,61.428,14.627z M33.548,65.817c-17.88,0-32.38-14.5-32.38-32.37c0-17.89,14.5-32.38,32.38-32.38
	s32.38,14.49,32.38,32.38C65.928,51.317,51.428,65.817,33.548,65.817z"/>
<path fill="#FFFFFF" d="M65.928,33.327c0,17.87-14.5,32.37-32.38,32.37s-32.38-14.5-32.38-32.37c0-17.89,14.5-32.38,32.38-32.38
	S65.928,15.437,65.928,33.327z"/>
<g>
	<path fill="#78909C" d="M23.244,49.963v-32.66H37.09c1.502,0,2.89,0.315,4.163,0.943c1.272,0.629,2.369,1.457,3.289,2.484
		c0.92,1.028,1.64,2.193,2.162,3.496c0.521,1.304,0.782,2.615,0.782,3.933c0,1.38-0.246,2.722-0.736,4.025
		c-0.491,1.304-1.181,2.461-2.07,3.473c-0.89,1.012-1.963,1.825-3.22,2.438c-1.258,0.614-2.638,0.92-4.14,0.92h-7.729v10.948H23.244
		z M29.592,33.449h7.36c1.165,0,2.139-0.475,2.921-1.426c0.782-0.95,1.173-2.238,1.173-3.864c0-0.828-0.123-1.571-0.368-2.231
		c-0.246-0.659-0.567-1.219-0.966-1.679c-0.399-0.46-0.867-0.805-1.403-1.035c-0.537-0.23-1.081-0.345-1.633-0.345h-7.084V33.449z"
		/>
</g>
</svg>
