<?xml version="1.0" encoding="utf-8"?>
<!-- Generator: Adobe Illustrator 16.0.0, SVG Export Plug-In . SVG Version: 6.00 Build 0)  -->
<!DOCTYPE svg PUBLIC "-//W3C//DTD SVG 1.1//EN" "http://www.w3.org/Graphics/SVG/1.1/DTD/svg11.dtd">
<svg version="1.1" id="Warstwa_1" xmlns="http://www.w3.org/2000/svg" xmlns:xlink="http://www.w3.org/1999/xlink" x="0px" y="0px"
	 width="67.096px" height="97px" viewBox="0 0 67.096 97" enable-background="new 0 0 67.096 97" xml:space="preserve">
<path fill="#EAC31F" d="M61.428,14.627c0,0-9.76-15-27.88-14.62c-18.12-0.38-27.88,14.62-27.88,14.62c-15.62,24.26,6,47.13,6,47.13
	c16.26,18.369,17.26,26.369,18.26,30c1,3.63,3.62,3.369,3.62,3.369s2.62,0.261,3.62-3.369c1-3.631,2-11.631,18.26-30
	C55.428,61.758,77.048,38.887,61.428,14.627z M33.548,65.817c-17.88,0-32.38-14.5-32.38-32.37c0-17.89,14.5-32.38,32.38-32.38
	s32.38,14.49,32.38,32.38C65.928,51.317,51.428,65.817,33.548,65.817z"/>
<path fill="#FFFFFF" d="M65.928,33.327c0,17.87-14.5,32.37-32.38,32.37s-32.38-14.5-32.38-32.37c0-17.89,14.5-32.38,32.38-32.38
	S65.928,15.437,65.928,33.327z"/>
<g>
	<path fill="#EAC31F" d="M26.073,53.477c-0.688,0-1.248-0.568-1.248-1.268V27.593c-2.759-0.595-3.872-2.981-4.075-4.217
		l-0.026-7.354c0-0.7,0.569-1.269,1.268-1.269c0.7,0,1.248,0.557,1.248,1.268v7.066c0.147,0.51,0.544,1.444,1.586,1.884v-8.95
		c0-0.699,0.56-1.268,1.248-1.268c0.699,0,1.268,0.569,1.268,1.268v8.98c1.419-0.562,1.647-1.995,1.649-2.011l-0.002-6.969
		c0-0.699,0.569-1.268,1.268-1.268c0.688,0,1.248,0.569,1.248,1.268v7.133c-0.232,1.471-1.361,3.886-4.163,4.463v24.591
		C27.341,52.908,26.772,53.477,26.073,53.477z"/>
	<path fill="#EAC31F" d="M31.004,16.021v7.133c-0.222,1.373-1.354,3.676-4.163,4.041v25.014c0,0.424-0.343,0.768-0.768,0.768
		c-0.404,0-0.748-0.344-0.748-0.768V27.174c-2.768-0.384-3.879-2.647-4.082-3.879l-0.02-7.274c0-0.424,0.344-0.768,0.768-0.768
		c0.424,0,0.748,0.344,0.748,0.768v7.133c0.041,0.141,0.465,2.08,2.586,2.485v-9.618c0-0.424,0.343-0.768,0.748-0.768
		c0.425,0,0.768,0.344,0.768,0.768v9.638c2.263-0.404,2.647-2.526,2.647-2.626v-7.012c0-0.424,0.344-0.768,0.768-0.768
		C30.66,15.253,31.004,15.597,31.004,16.021z"/>
	<path fill="#EAC31F" d="M40.258,53.496c-0.688,0-1.248-0.551-1.248-1.229c0,0,0-20.807,0-20.815h-0.592
		c-1.548,0-2.358-1.177-2.358-2.339v-9.557c0-2.018,1.766-3.635,3.407-4.284c0.711-0.274,1.365-0.297,1.922-0.297h1.819
		c0.699,0,1.268,0.56,1.268,1.248v12.81c0,1.612-1.312,2.282-2.006,2.411l-0.945,0.005c0,0.009,0,20.818,0,20.818
		C41.524,52.945,40.956,53.496,40.258,53.496z M41.959,28.938V17.491h-0.57c-0.452,0-0.74,0.019-0.973,0.12
		c-0.976,0.364-1.841,1.287-1.841,1.946v9.38L41.959,28.938z"/>
	<path fill="#EAC31F" d="M43.208,15.476h-1.819c-0.525,0-1.111,0.021-1.738,0.262c-1.534,0.606-3.091,2.101-3.091,3.819v9.557
		c0,0.748,0.485,1.839,1.858,1.839h1.314c-0.142,0.141-0.223,0.322-0.223,0.525v20.79c0,0.406,0.343,0.729,0.748,0.729
		c0.424,0,0.767-0.322,0.767-0.729v-20.79c0-0.203-0.08-0.384-0.223-0.525h1.577c0.547-0.102,1.597-0.626,1.597-1.919v-12.81
		C43.976,15.819,43.632,15.476,43.208,15.476z M42.459,29.033c0,0.202-0.1,0.343-0.303,0.404h-3.738c-0.12,0-0.323,0-0.343-0.324
		v-9.557c0-0.97,1.111-2.021,2.142-2.404c0.324-0.141,0.688-0.162,1.172-0.162h1.07V29.033z"/>
</g>
</svg>
