<?xml version="1.0" encoding="utf-8"?>
<!-- Generator: Adobe Illustrator 16.0.0, SVG Export Plug-In . SVG Version: 6.00 Build 0)  -->
<!DOCTYPE svg PUBLIC "-//W3C//DTD SVG 1.1//EN" "http://www.w3.org/Graphics/SVG/1.1/DTD/svg11.dtd">
<svg version="1.1" id="Warstwa_1" xmlns="http://www.w3.org/2000/svg" xmlns:xlink="http://www.w3.org/1999/xlink" x="0px" y="0px"
	 width="67.095px" height="97px" viewBox="0 0 67.095 97" enable-background="new 0 0 67.095 97" xml:space="preserve">
<path fill="#E07C0E" d="M61.427,14.627c0,0-9.76-15-27.88-14.62c-18.12-0.38-27.88,14.62-27.88,14.62c-15.62,24.26,6,47.13,6,47.13
	c16.26,18.369,17.26,26.369,18.26,30c1,3.63,3.62,3.369,3.62,3.369s2.62,0.261,3.62-3.369c1-3.631,2-11.631,18.26-30
	C55.427,61.758,77.047,38.887,61.427,14.627z M33.547,65.817c-17.88,0-32.38-14.5-32.38-32.37c0-17.89,14.5-32.38,32.38-32.38
	s32.38,14.49,32.38,32.38C65.927,51.317,51.427,65.817,33.547,65.817z"/>
<path fill="#FFFFFF" d="M65.927,33.327c0,17.87-14.5,32.37-32.38,32.37s-32.38-14.5-32.38-32.37c0-17.89,14.5-32.38,32.38-32.38
	S65.927,15.437,65.927,33.327z"/>
<path fill="#E07C0E" d="M51.007,17.414h-4.726c-0.857,0.121-0.978,0.868-0.978,0.868l-0.726,3.693L16.223,23.59
	c-1.253,0.11-0.978,1.516-0.978,1.516s1.143,7.573,1.957,10.595c0.835,3.022,3.341,3.264,3.341,3.264h20.98l-0.462,2.429H23.796
	c-0.056,0-0.11,0-0.165,0.011c-2.077,0.077-3.748,1.803-3.748,3.913c0,2.154,1.758,3.913,3.913,3.913
	c2.165,0,3.923-1.759,3.923-3.913c0-0.616-0.143-1.198-0.396-1.703l0.121,0.022h10.672c-0.254,0.505-0.386,1.077-0.386,1.681
	c0,2.154,1.759,3.913,3.913,3.913c2.165,0,3.912-1.759,3.912-3.913c0-1.572-0.923-2.934-2.264-3.55v-0.011L47.391,19.7l3.727-0.044
	c0,0,0.758-0.132,0.758-1.11C51.875,17.545,51.007,17.414,51.007,17.414z M23.796,47.032c-0.946,0-1.715-0.77-1.715-1.714
	s0.769-1.725,1.715-1.725c0.956,0,1.725,0.78,1.725,1.725S24.752,47.032,23.796,47.032z M37.093,24.645l-0.307,3.309l-5.089,0.143
	v-3.132L37.093,24.645z M24.895,29.789l5.331-0.154l0.022,2.748l-5.045,0.099L24.895,29.789z M31.698,29.591l4.945-0.143
	l-0.264,2.813l-4.682,0.088V29.591z M30.192,25.052l0.022,3.077l-5.484,0.144l-0.33-2.88L30.192,25.052z M17.718,25.788l5.144-0.297
	l0.33,2.825l-4.99,0.131L17.718,25.788z M18.487,29.976l4.879-0.143l0.308,2.67l-4.714,0.1L18.487,29.976z M20.784,36.68
	c0,0-1.099-0.088-1.341-1.462l-0.22-1.231l4.616-0.066l0.319,2.759H20.784z M25.675,36.68l-0.318-2.77l4.901-0.066l0.022,2.835
	H25.675z M31.698,36.68v-2.857l4.539-0.055l-0.274,2.912H31.698z M37.49,36.68l0.264-2.934l4.747-0.066l-0.527,3H37.49z
	 M43.358,45.318c0,0.945-0.77,1.714-1.714,1.714c-0.945,0-1.715-0.77-1.715-1.714s0.77-1.725,1.715-1.725
	C42.588,43.593,43.358,44.373,43.358,45.318z M43.281,29.25l-0.506,2.879l-4.89,0.099l0.253-2.825L43.281,29.25l0.253-1.473
	L38.27,27.92l0.296-3.363l5.605-0.33L43.281,29.25z"/>
</svg>
