<?xml version="1.0" encoding="utf-8"?>
<!-- Generator: Adobe Illustrator 16.0.0, SVG Export Plug-In . SVG Version: 6.00 Build 0)  -->
<!DOCTYPE svg PUBLIC "-//W3C//DTD SVG 1.1//EN" "http://www.w3.org/Graphics/SVG/1.1/DTD/svg11.dtd">
<svg version="1.1" id="Warstwa_1" xmlns="http://www.w3.org/2000/svg" xmlns:xlink="http://www.w3.org/1999/xlink" x="0px" y="0px"
	 width="67.096px" height="97px" viewBox="0 0 67.096 97" enable-background="new 0 0 67.096 97" xml:space="preserve">
<path fill="#34A853" d="M61.428,14.627c0,0-9.76-15-27.88-14.62c-18.12-0.38-27.88,14.62-27.88,14.62c-15.62,24.26,6,47.13,6,47.13
	c16.26,18.369,17.26,26.369,18.26,30c1,3.63,3.62,3.369,3.62,3.369s2.62,0.261,3.62-3.369c1-3.631,2-11.631,18.26-30
	C55.428,61.758,77.048,38.887,61.428,14.627z M33.548,65.817c-17.88,0-32.38-14.5-32.38-32.37c0-17.89,14.5-32.38,32.38-32.38
	s32.38,14.49,32.38,32.38C65.928,51.317,51.428,65.817,33.548,65.817z"/>
<path fill="#FFFFFF" d="M65.928,33.327c0,17.87-14.5,32.37-32.38,32.37s-32.38-14.5-32.38-32.37c0-17.89,14.5-32.38,32.38-32.38
	S65.928,15.437,65.928,33.327z"/>
<g>
	<circle fill="#34A853" cx="37.375" cy="17.375" r="3.375"/>
	<circle fill="#34A853" cx="38.813" cy="49.25" r="3.625"/>
	<path fill="#34A853" d="M18.859,23.473c3.502-0.618,7.056-0.971,10.57-1.529c0.406-0.064,0.864-0.076,1.258-0.194
		c0,0,1.47-0.438,2.86,0.25s10.89,6.125,10.89,6.125l4.625-2.875c0,0,0.313-0.5,1.063,0.188s0.313,0.813,0,1.188
		s-4.688,4.438-4.688,4.438s-0.5,0.75-2.188,0l-4.438-1.938c0,0-9.818,21.998-9.875,22.124c-0.246,0.552-1.157,1.51-1.795,1.534
		c-1.028,0.039-1.008-1.517-1.017-2.221c0,0,3.813-11.563,4.5-14.688c-0.135,0.613-1.215,1.565-1.57,2.086
		c-0.635,0.934-1.315,1.833-1.878,2.813c-0.568,0.989-1.019,2.515-2.231,2.908c-1.046,0.338-1.923-0.608-1.758-1.683
		c0,0,0.888-5.781,6.125-16.125c-2.073-0.024-4.145-0.103-6.218-0.106c-1.022-0.001-2.044,0.015-3.065,0.066
		c-0.736,0.037-1.646,0.251-2.314-0.173c-0.65-0.414-0.724-1.221-0.106-1.721C17.909,23.699,18.366,23.56,18.859,23.473z"/>
</g>
</svg>
