<?xml version="1.0" encoding="utf-8"?>
<!-- Generator: Adobe Illustrator 16.0.0, SVG Export Plug-In . SVG Version: 6.00 Build 0)  -->
<!DOCTYPE svg PUBLIC "-//W3C//DTD SVG 1.1//EN" "http://www.w3.org/Graphics/SVG/1.1/DTD/svg11.dtd">
<svg version="1.1" id="Warstwa_1" xmlns="http://www.w3.org/2000/svg" xmlns:xlink="http://www.w3.org/1999/xlink" x="0px" y="0px"
	 width="67.096px" height="97px" viewBox="0 0 67.096 97" enable-background="new 0 0 67.096 97" xml:space="preserve">
<path fill="#144708" d="M61.428,14.627c0,0-9.76-15-27.88-14.62c-18.12-0.38-27.88,14.62-27.88,14.62c-15.62,24.26,6,47.13,6,47.13
	c16.26,18.369,17.26,26.369,18.26,30c1,3.63,3.62,3.369,3.62,3.369s2.62,0.261,3.62-3.369c1-3.631,2-11.631,18.26-30
	C55.428,61.758,77.048,38.887,61.428,14.627z M33.548,65.817c-17.88,0-32.38-14.5-32.38-32.37c0-17.89,14.5-32.38,32.38-32.38
	s32.38,14.49,32.38,32.38C65.928,51.317,51.428,65.817,33.548,65.817z"/>
<path fill="#FFFFFF" d="M65.928,33.327c0,17.87-14.5,32.37-32.38,32.37s-32.38-14.5-32.38-32.37c0-17.89,14.5-32.38,32.38-32.38
	S65.928,15.437,65.928,33.327z"/>
<g>
	<path fill="#144708" d="M47.986,44.477c0.768,0.787,0.496,1.431-0.604,1.431h-7.519c-1.1,0-2,0.9-2,2v1.038c0,1.1-0.9,2-2,2h-4.648
		c-1.1,0-2-0.9-2-2v-1.038c0-1.1-0.9-2-2-2h-7.503c-1.1,0-1.372-0.644-0.603-1.432l6.79-6.958c0.769-0.788,0.497-1.432-0.603-1.432
		h-3.132c-1.1,0-1.372-0.644-0.603-1.431l6.901-7.07c0.769-0.787,0.497-1.431-0.603-1.431H25.29c-1.1,0-1.37-0.643-0.6-1.428
		l7.457-7.601c0.77-0.785,2.03-0.785,2.801,0l7.457,7.601c0.771,0.785,0.5,1.428-0.6,1.428h-2.568c-1.1,0-1.371,0.644-0.604,1.431
		l6.901,7.07c0.768,0.787,0.496,1.431-0.604,1.431h-3.133c-1.1,0-1.371,0.644-0.604,1.431L47.986,44.477z"/>
</g>
</svg>
